<svg width="16" height="16" viewBox="0 0 16 16" fill="none" xmlns="http://www.w3.org/2000/svg">
<path d="M0 0H16V16H0V0Z" fill="#F8ECE4"/>
<path d="M5.9456 10.7661C5.41312 10.7661 4.92928 10.6483 4.49408 10.4128C4.064 10.1722 3.72608 9.84448 3.48032 9.42976C3.23968 9.01504 3.11936 8.54912 3.11936 8.032C3.11936 7.51488 3.23968 7.04896 3.48032 6.63424C3.72608 6.21952 4.064 5.8944 4.49408 5.65888C4.92928 5.41824 5.41312 5.29792 5.9456 5.29792C6.47808 5.29792 6.9568 5.41568 7.38176 5.6512C7.81184 5.88672 8.14976 6.2144 8.39552 6.63424C8.64128 7.04896 8.76416 7.51488 8.76416 8.032C8.76416 8.54912 8.64128 9.0176 8.39552 9.43744C8.14976 9.85216 7.81184 10.1773 7.38176 10.4128C6.9568 10.6483 6.47808 10.7661 5.9456 10.7661ZM5.9456 10.2592C6.37056 10.2592 6.75456 10.1645 7.0976 9.97504C7.44064 9.78048 7.70944 9.51424 7.904 9.17632C8.09856 8.83328 8.19584 8.45184 8.19584 8.032C8.19584 7.61216 8.09856 7.23328 7.904 6.89536C7.70944 6.55232 7.44064 6.28608 7.0976 6.09664C6.75456 5.90208 6.37056 5.8048 5.9456 5.8048C5.52064 5.8048 5.13408 5.90208 4.78592 6.09664C4.44288 6.28608 4.17152 6.55232 3.97184 6.89536C3.77728 7.23328 3.68 7.61216 3.68 8.032C3.68 8.45184 3.77728 8.83328 3.97184 9.17632C4.17152 9.51424 4.44288 9.78048 4.78592 9.97504C5.13408 10.1645 5.52064 10.2592 5.9456 10.2592Z" fill="#48413C"/>
<path d="M12.4056 10.72L11.1231 9.0304L9.83282 10.72H9.21842L10.8159 8.6464L9.29522 6.68032H9.90962L11.1231 8.2624L12.3365 6.68032H12.9355L11.4149 8.6464L13.0277 10.72H12.4056Z" fill="#48413C"/>
</svg>
